<?xml version="1.0" encoding="utf-8"?>
<!-- Generator: Adobe Illustrator 19.2.1, SVG Export Plug-In . SVG Version: 6.00 Build 0)  -->
<svg version="1.1" id="Capa_1" xmlns="http://www.w3.org/2000/svg" xmlns:xlink="http://www.w3.org/1999/xlink" x="0px" y="0px"
	 viewBox="0 0 609 322" style="enable-background:new 0 0 609 322;" xml:space="preserve">
<style type="text/css">
	.st0{fill:none;stroke:#DBDBDB;stroke-miterlimit:10;}
</style>
<g>
	<g>
		<path class="st0" d="M99.1,136.1H83.6v-10.8c-6.7,8-15.6,12-26.9,12c-8.4,0-15.4-2.4-20.9-7.1c-5.5-4.8-8.3-11.1-8.3-19
			c0-7.9,2.9-13.9,8.8-17.8c5.9-3.9,13.8-5.9,23.8-5.9h22v-3c0-10.7-6-16.1-17.9-16.1c-7.5,0-15.3,2.7-23.4,8.2l-7.6-10.6
			c9.8-7.8,20.9-11.7,33.4-11.7c9.5,0,17.3,2.4,23.3,7.2c6,4.8,9,12.4,9,22.7V136.1z M82.1,106.1v-6.8H62.9
			c-12.2,0-18.4,3.8-18.4,11.5c0,3.9,1.5,7,4.6,9c3,2.1,7.3,3.1,12.7,3.1c5.4,0,10.1-1.5,14.2-4.6C80,115.3,82.1,111.2,82.1,106.1z"
			/>
		<path class="st0" d="M150.4,71.3c-8.4,0-14.7,2.7-19,8.2c-4.2,5.5-6.4,12.8-6.4,22v34.6h-17V55.4h17v16.2
			c2.7-5.1,6.5-9.2,11.2-12.4c4.7-3.2,9.7-4.9,15-5l0.2,17.1C151,71.3,150.7,71.3,150.4,71.3z"/>
		<path class="st0" d="M174.5,69v41c0,3.8,1,6.9,3,9.2c2,2.3,4.9,3.4,8.5,3.4c3.6,0,7.1-1.8,10.5-5.3l7,12c-6,5.4-12.6,8-19.8,8
			c-7.2,0-13.4-2.5-18.5-7.5c-5.1-5-7.7-11.8-7.7-20.3V69h-10.2V55.4h10.2V30h17v25.3h21.2V69H174.5z"/>
		<path class="st0" d="M203.2,134c-2.2-2.2-3.3-4.9-3.3-8c0-3.1,1.1-5.8,3.3-8c2.2-2.2,4.8-3.3,8-3.3c3.1,0,5.8,1.1,8,3.3
			c2.2,2.2,3.3,4.8,3.3,8c0,3.1-1.1,5.8-3.3,8c-2.2,2.2-4.9,3.3-8,3.3C208.1,137.3,205.4,136.2,203.2,134z"/>
		<path class="st0" d="M231.1,39.3c-2.1-2.1-3.2-4.7-3.2-7.6c0-2.9,1.1-5.5,3.2-7.6c2.1-2.1,4.7-3.2,7.6-3.2c2.9,0,5.5,1.1,7.6,3.2
			c2.1,2.1,3.2,4.7,3.2,7.6c0,2.9-1.1,5.5-3.2,7.6c-2.1,2.1-4.7,3.2-7.6,3.2C235.8,42.5,233.2,41.4,231.1,39.3z M247,136.1h-17V55.4
			h17V136.1z"/>
		<path class="st0" d="M263.1,125.8c-7.6-7.7-11.4-17.8-11.4-30.4c0-12.5,3.9-22.6,11.7-30.1c7.8-7.5,17.1-11.2,27.9-11.2
			c10.8,0,19.5,4.6,26,13.7V23.5h17v112.6h-17V124c-6.3,8.9-15.4,13.4-27.5,13.4C279.6,137.3,270.7,133.5,263.1,125.8z M268.7,96.1
			c0,7.7,2.5,14,7.4,18.9c5,4.9,10.8,7.3,17.5,7.3c6.7,0,12.3-2.5,17-7.4c4.7-4.9,7-11.2,7-18.9c0-7.7-2.3-14.1-7-19.3
			c-4.7-5.2-10.4-7.7-17.1-7.7c-6.8,0-12.6,2.6-17.5,7.7C271.2,81.9,268.7,88.4,268.7,96.1z"/>
		<path class="st0" d="M419.3,103.2H356c0.4,5.9,3.1,10.6,8,14.2c5,3.6,10.6,5.4,17,5.4c10.1,0,17.8-3.2,23.1-9.6l9.7,10.6
			c-8.7,9-20,13.5-34,13.5c-11.3,0-21-3.8-28.9-11.3c-7.9-7.5-11.9-17.7-11.9-30.4c0-12.7,4-22.8,12.1-30.3
			c8.1-7.5,17.6-11.2,28.6-11.2c11,0,20.3,3.3,28,9.9c7.7,6.6,11.5,15.8,11.5,27.4V103.2z M356,89.8h46.3c0-6.8-2.1-12-6.4-15.6
			s-9.5-5.5-15.7-5.5s-11.8,1.9-16.8,5.7C358.5,78.2,356,83.3,356,89.8z"/>
		<path class="st0" d="M488.7,136.1h-15.5v-10.8c-6.7,8-15.6,12-26.9,12c-8.4,0-15.4-2.4-20.9-7.1c-5.5-4.8-8.3-11.1-8.3-19
			c0-7.9,2.9-13.9,8.8-17.8c5.9-3.9,13.8-5.9,23.8-5.9h22v-3c0-10.7-6-16.1-17.9-16.1c-7.5,0-15.3,2.7-23.4,8.2l-7.6-10.6
			c9.8-7.8,20.9-11.7,33.4-11.7c9.5,0,17.3,2.4,23.3,7.2c6,4.8,9,12.4,9,22.7V136.1z M471.7,106.1v-6.8h-19.1
			c-12.2,0-18.4,3.8-18.4,11.5c0,3.9,1.5,7,4.6,9c3,2.1,7.3,3.1,12.7,3.1c5.4,0,10.1-1.5,14.2-4.6
			C469.6,115.3,471.7,111.2,471.7,106.1z"/>
		<path class="st0" d="M555.1,112c0,7.7-2.8,13.8-8.3,18.4c-5.6,4.6-12.7,6.9-21.4,6.9c-5.9,0-12-1.1-18.3-3.2
			c-6.3-2.1-11.9-5.1-16.8-9l8.2-13.2c9.4,7.1,18.5,10.6,27.3,10.6c3.8,0,6.9-0.9,9.1-2.7c2.2-1.8,3.3-4,3.3-6.8
			c0-4-5.4-7.7-16.1-10.9c-0.8-0.3-1.4-0.5-1.8-0.6c-16.8-4.6-25.2-12.1-25.2-22.8c0-7.5,2.9-13.5,8.7-18c5.8-4.5,13.4-6.8,22.7-6.8
			c9.3,0,18.1,2.7,26.4,8.2l-6.4,12.6c-6.6-4.3-13.7-6.5-21.4-6.5c-4,0-7.3,0.7-9.9,2.2c-2.5,1.5-3.8,3.7-3.8,6.6
			c0,2.6,1.3,4.6,3.9,5.8c1.8,0.9,4.4,1.8,7.7,2.6c3.3,0.8,6.2,1.6,8.7,2.4c2.5,0.8,5,1.7,7.4,2.7c2.4,1,4.9,2.4,7.7,4.2
			C552.4,98.6,555.1,104.3,555.1,112z"/>
		<path class="st0" d="M560.7,134c-2.2-2.2-3.3-4.9-3.3-8c0-3.1,1.1-5.8,3.3-8c2.2-2.2,4.8-3.3,8-3.3c3.1,0,5.8,1.1,8,3.3
			c2.2,2.2,3.3,4.8,3.3,8c0,3.1-1.1,5.8-3.3,8c-2.2,2.2-4.9,3.3-8,3.3C565.5,137.3,562.8,136.2,560.7,134z"/>
	</g>
	<g>
		<path class="st0" d="M39.9,240.1c-7.6-7.7-11.4-17.8-11.4-30.4c0-12.5,3.9-22.6,11.7-30.1c7.8-7.5,17.1-11.2,27.9-11.2
			s19.5,4.6,26,13.7v-44.3h17v112.6h-17v-12.1c-6.3,8.9-15.4,13.4-27.5,13.4C56.4,251.7,47.5,247.8,39.9,240.1z M45.5,210.5
			c0,7.7,2.5,14,7.4,18.9c5,4.9,10.8,7.3,17.5,7.3c6.7,0,12.3-2.5,17-7.4c4.7-4.9,7-11.2,7-18.9c0-7.7-2.3-14.1-7-19.3
			c-4.7-5.2-10.4-7.7-17.1-7.7c-6.8,0-12.6,2.6-17.5,7.7C47.9,196.3,45.5,202.7,45.5,210.5z"/>
		<path class="st0" d="M122,153.6c-2.1-2.1-3.2-4.7-3.2-7.6c0-2.9,1.1-5.5,3.2-7.6c2.1-2.1,4.7-3.2,7.6-3.2c2.9,0,5.5,1.1,7.6,3.2
			c2.1,2.1,3.2,4.7,3.2,7.6c0,2.9-1.1,5.5-3.2,7.6c-2.1,2.1-4.7,3.2-7.6,3.2C126.6,156.8,124.1,155.8,122,153.6z M137.9,250.5h-17
			v-80.7h17V250.5z"/>
		<path class="st0" d="M222.4,169.7v70.4c0,14.3-3.9,25-11.6,32.1s-17.7,10.7-29.8,10.7s-23.1-3.8-32.9-11.4l8-12.9
			c7.9,6,15.9,9,23.9,9c8,0,14.4-2.1,19.1-6.2c4.7-4.1,7.1-10.8,7.1-19.9v-10.3c-2.5,4.8-6.1,8.6-10.9,11.4
			c-4.7,2.8-10,4.2-15.9,4.2c-10.7,0-19.5-3.7-26.4-11.2c-6.9-7.5-10.3-16.8-10.3-27.9c0-11.1,3.4-20.4,10.3-27.9
			c6.9-7.5,15.7-11.2,26.3-11.2c10.7,0,19.4,4.4,26,13.2v-12H222.4z M159.5,207c0,6.6,2,12.3,6.1,17.2c4.1,4.8,9.6,7.2,16.5,7.2
			c6.9,0,12.5-2.3,16.8-7c4.3-4.7,6.5-10.4,6.5-17.4c0-6.9-2.2-12.8-6.5-17.6c-4.4-4.8-10-7.2-16.8-7.2c-6.9,0-12.4,2.5-16.5,7.4
			C161.5,194.6,159.5,200.4,159.5,207z"/>
		<path class="st0" d="M233.4,153.6c-2.1-2.1-3.2-4.7-3.2-7.6c0-2.9,1.1-5.5,3.2-7.6c2.1-2.1,4.7-3.2,7.6-3.2c2.9,0,5.5,1.1,7.6,3.2
			c2.1,2.1,3.2,4.7,3.2,7.6c0,2.9-1.1,5.5-3.2,7.6c-2.1,2.1-4.7,3.2-7.6,3.2C238,156.8,235.5,155.8,233.4,153.6z M249.3,250.5h-17
			v-80.7h17V250.5z"/>
		<path class="st0" d="M280.1,183.4v41c0,3.8,1,6.9,3,9.2c2,2.3,4.9,3.4,8.5,3.4c3.6,0,7.1-1.8,10.5-5.3l7,12c-6,5.4-12.6,8-19.8,8
			c-7.2,0-13.4-2.5-18.5-7.5c-5.1-5-7.7-11.8-7.7-20.3v-40.5H253v-13.7h10.2v-25.3h17v25.3h21.2v13.7H280.1z"/>
		<path class="st0" d="M373.3,250.5h-15.5v-10.8c-6.7,8-15.6,12-26.9,12c-8.4,0-15.4-2.4-20.9-7.1c-5.5-4.8-8.3-11.1-8.3-19
			c0-7.9,2.9-13.9,8.8-17.8c5.9-3.9,13.8-5.9,23.8-5.9h22v-3c0-10.7-6-16.1-17.9-16.1c-7.5,0-15.3,2.7-23.4,8.2l-7.6-10.6
			c9.8-7.8,20.9-11.7,33.4-11.7c9.5,0,17.3,2.4,23.3,7.2c6,4.8,9,12.4,9,22.7V250.5z M356.3,220.4v-6.8h-19.1
			c-12.2,0-18.4,3.8-18.4,11.5c0,3.9,1.5,7,4.6,9c3,2.1,7.3,3.1,12.7,3.1c5.4,0,10.1-1.5,14.2-4.6
			C354.3,229.7,356.3,225.6,356.3,220.4z"/>
		<path class="st0" d="M399.3,250.5h-17V137.8h17V250.5z"/>
		<path class="st0" d="M410.1,248.3c-2.2-2.2-3.3-4.9-3.3-8c0-3.1,1.1-5.8,3.3-8c2.2-2.2,4.8-3.3,8-3.3c3.1,0,5.8,1.1,8,3.3
			c2.2,2.2,3.3,4.8,3.3,8c0,3.1-1.1,5.8-3.3,8c-2.2,2.2-4.9,3.3-8,3.3C414.9,251.7,412.3,250.6,410.1,248.3z"/>
	</g>
</g>
</svg>
